<?xml version="1.0" encoding="UTF-8"?>
<svg xmlns="http://www.w3.org/2000/svg" xmlns:xlink="http://www.w3.org/1999/xlink" width="30px" height="30px" viewBox="0 0 30 30" version="1.1">
<defs>
<filter id="alpha" filterUnits="objectBoundingBox" x="0%" y="0%" width="100%" height="100%">
  <feColorMatrix type="matrix" in="SourceGraphic" values="0 0 0 0 1 0 0 0 0 1 0 0 0 0 1 0 0 0 1 0"/>
</filter>
<mask id="mask0">
  <g filter="url(#alpha)">
<rect x="0" y="0" width="30" height="30" style="fill:rgb(0%,0%,0%);fill-opacity:0.988235;stroke:none;"/>
  </g>
</mask>
<clipPath id="clip1">
  <rect x="0" y="0" width="30" height="30"/>
</clipPath>
<g id="surface5" clip-path="url(#clip1)">
<path style=" stroke:none;fill-rule:evenodd;fill:rgb(80%,80%,80%);fill-opacity:1;" d="M 1.960938 -0.03125 C 2.332031 -0.03125 2.707031 -0.03125 3.078125 -0.03125 C 3.449219 0.0859375 3.800781 0.25 4.132812 0.46875 C 7.734375 4.082031 11.347656 7.6875 14.96875 11.28125 C 18.59375 7.6875 22.207031 4.082031 25.8125 0.46875 C 26.140625 0.25 26.492188 0.0859375 26.867188 -0.03125 C 27.234375 -0.03125 27.609375 -0.03125 27.976562 -0.03125 C 29.015625 0.265625 29.679688 0.925781 29.96875 1.960938 C 29.96875 2.332031 29.96875 2.707031 29.96875 3.078125 C 29.855469 3.445312 29.6875 3.796875 29.472656 4.132812 C 25.859375 7.734375 22.253906 11.347656 18.664062 14.96875 C 22.253906 18.59375 25.859375 22.207031 29.472656 25.8125 C 29.691406 26.140625 29.855469 26.492188 29.96875 26.867188 C 29.96875 27.234375 29.96875 27.609375 29.96875 27.976562 C 29.679688 29.015625 29.015625 29.679688 27.976562 29.96875 C 27.609375 29.96875 27.234375 29.96875 26.867188 29.96875 C 26.496094 29.855469 26.144531 29.6875 25.8125 29.472656 C 22.207031 25.859375 18.59375 22.253906 14.96875 18.664062 C 11.347656 22.253906 7.734375 25.859375 4.132812 29.472656 C 3.800781 29.691406 3.449219 29.855469 3.078125 29.96875 C 2.707031 29.96875 2.332031 29.96875 1.960938 29.96875 C 0.925781 29.679688 0.265625 29.015625 -0.03125 27.976562 C -0.03125 27.609375 -0.03125 27.234375 -0.03125 26.867188 C 0.0859375 26.492188 0.25 26.140625 0.46875 25.8125 C 4.082031 22.207031 7.6875 18.59375 11.28125 14.96875 C 7.6875 11.347656 4.082031 7.734375 0.46875 4.132812 C 0.25 3.800781 0.0859375 3.449219 -0.03125 3.078125 C -0.03125 2.707031 -0.03125 2.332031 -0.03125 1.960938 C 0.265625 0.925781 0.925781 0.265625 1.960938 -0.03125 Z M 1.960938 -0.03125 "/>
</g>
</defs>
<g id="surface1">
<use xlink:href="#surface5" mask="url(#mask0)"/>
</g>
</svg>
