<?xml version="1.0" encoding="UTF-8"?>
<svg xmlns="http://www.w3.org/2000/svg" xmlns:xlink="http://www.w3.org/1999/xlink" width="30px" height="30px" viewBox="0 0 30 30" version="1.1">
<g id="surface1">
<path style=" stroke:none;fill-rule:nonzero;fill:rgb(0%,0%,0%);fill-opacity:1;" d="M 4.265625 2.34375 C 2.4375 2.660156 0.855469 4.03125 0.226562 5.847656 L 0.03125 6.414062 L 0.03125 23.585938 L 0.226562 24.152344 C 0.796875 25.792969 2.140625 27.078125 3.789062 27.550781 L 4.25 27.6875 L 21.179688 27.6875 L 21.710938 27.523438 C 23.585938 26.9375 25.015625 25.34375 25.34375 23.46875 C 25.414062 23.050781 25.429688 22.359375 25.429688 19.796875 C 25.429688 17.9375 25.40625 16.585938 25.371094 16.5 C 25.304688 16.324219 25.03125 16.171875 24.78125 16.171875 C 24.617188 16.171875 24.484375 16.273438 23.84375 16.910156 L 23.097656 17.648438 L 23.070312 20.328125 C 23.050781 22.554688 23.03125 23.046875 22.957031 23.265625 C 22.632812 24.210938 22 24.867188 21.058594 25.230469 C 20.78125 25.335938 20.4375 25.34375 12.976562 25.359375 C 7.769531 25.371094 5.050781 25.351562 4.773438 25.3125 C 3.625 25.140625 2.613281 24.164062 2.402344 23.03125 C 2.320312 22.605469 2.320312 7.394531 2.402344 6.96875 C 2.609375 5.847656 3.625 4.863281 4.746094 4.6875 C 5.351562 4.59375 20.3125 4.609375 20.800781 4.703125 C 21.023438 4.75 21.257812 4.765625 21.363281 4.734375 C 21.476562 4.703125 21.75 4.476562 22.109375 4.113281 C 22.628906 3.578125 22.675781 3.515625 22.675781 3.304688 C 22.675781 2.992188 22.546875 2.824219 22.179688 2.660156 C 21.339844 2.289062 22.007812 2.320312 12.859375 2.308594 C 8.285156 2.304688 4.417969 2.320312 4.265625 2.34375 Z M 4.265625 2.34375 "/>
<path style=" stroke:none;fill-rule:nonzero;fill:rgb(0%,0%,0%);fill-opacity:1;" d="M 25.929688 3.59375 C 25.695312 3.710938 24.40625 4.96875 19.746094 9.632812 L 13.859375 15.527344 L 11.398438 13.070312 C 10.042969 11.726562 8.847656 10.570312 8.734375 10.515625 C 8.625 10.464844 8.382812 10.398438 8.191406 10.390625 C 7.578125 10.328125 7.441406 10.417969 6.132812 11.710938 C 5.492188 12.34375 4.90625 12.96875 4.820312 13.09375 C 4.710938 13.265625 4.664062 13.429688 4.640625 13.722656 C 4.585938 14.492188 4.351562 14.210938 8.898438 18.761719 C 11.144531 21.007812 13.070312 22.886719 13.183594 22.945312 C 13.46875 23.097656 14.242188 23.097656 14.53125 22.945312 C 14.640625 22.886719 18.117188 19.460938 22.25 15.328125 C 28.125 9.457031 29.789062 7.765625 29.875 7.558594 C 30.039062 7.203125 30.039062 6.625 29.875 6.269531 C 29.734375 5.964844 27.574219 3.765625 27.246094 3.601562 C 27.128906 3.539062 26.867188 3.484375 26.632812 3.476562 C 26.285156 3.457031 26.171875 3.476562 25.929688 3.59375 Z M 25.929688 3.59375 "/>
</g>
</svg>
